PathFileType  4	(X/Y/Z) C:\Users\antoi\Documents\MyRepositories\mobilecap\ResultsAnalysis
DataRate	CameraRate	NumFrames	NumMarkers	Units	OrigDataRate	OrigDataStartFrame	OrigNumFrames
100.0	100.0	4	51	mm	100.0	143	284
Frame#	Time	r_knee			r_shank_antsup			r_ankle			r_calc			r_5meta			r_toe			L_knee			L_shank_antsup			L_ankle			L_calc			L_5meta			L_toe			r_sh2			r_sh3			r_sh4			L_sh2			L_sh3			r_thigh1			r_thigh2			r_thigh3			r_thigh4			r_thigh5			L_thigh1			L_thigh2			L_thigh3			L_thigh4			r.ASIS			r.PSIS			L.ASIS			L.PSIS			C7			R_Shoulder			L_Shoulder			R_Sternum			L_Sternum			R_humerus			R_elbow_med			R_elbow_lat			R_forearm			R_wrist_radius			R_wrist_ulna			L_humerus			L_elbow_med			L_elbow_lat			L_forearm			L_wrist_radius			L_wrist_ulna			R_HJC			L_HJC			R_HJC_reg			L_HJC_reg			
		X1	Y1	Z1	X2	Y2	Z2	X3	Y3	Z3	X4	Y4	Z4	X5	Y5	Z5	X6	Y6	Z6	X7	Y7	Z7	X8	Y8	Z8	X9	Y9	Z9	X10	Y10	Z10	X11	Y11	Z11	X12	Y12	Z12	X13	Y13	Z13	X14	Y14	Z14	X15	Y15	Z15	X16	Y16	Z16	X17	Y17	Z17	X18	Y18	Z18	X19	Y19	Z19	X20	Y20	Z20	X21	Y21	Z21	X22	Y22	Z22	X23	Y23	Z23	X24	Y24	Z24	X25	Y25	Z25	X26	Y26	Z26	X27	Y27	Z27	X28	Y28	Z28	X29	Y29	Z29	X30	Y30	Z30	X31	Y31	Z31	X32	Y32	Z32	X33	Y33	Z33	X34	Y34	Z34	X35	Y35	Z35	X36	Y36	Z36	X37	Y37	Z37	X38	Y38	Z38	X39	Y39	Z39	X40	Y40	Z40	X41	Y41	Z41	X42	Y42	Z42	X43	Y43	Z43	X44	Y44	Z44	X45	Y45	Z45	X46	Y46	Z46	X47	Y47	Z47	X48	Y48	Z48	X49	Y49	Z49	X50	Y50	Z50	X51	Y51	Z51	

143	1.42000000	-471.57964	946.18375	-362.22676	-450.29305	797.57741	-355.19865	-557.58689	443.78057	-329.07671	-621.12165	440.55967	-390.05978	-451.60594	332.36350	-314.20267	-407.53827	351.76358	-363.95102	-485.62703	945.31237	-813.80740	-439.06875	749.81630	-817.49394	-538.14225	455.00324	-823.91743	-585.14831	453.84928	-748.69182	-460.71395	310.97506	-867.93277	-396.83825	324.31025	-824.30048	-465.43196	686.22817	-348.58659	-514.54172	806.73228	-317.57568	-531.46853	697.18313	-302.46873	-516.11318	765.52315	-856.35912	-529.79201	646.86355	-845.80277	-543.64512	1233.40205	-362.55356	-489.80776	1135.29309	-355.84472	-535.68247	1084.51964	-345.72380	-641.13840	1180.86792	-386.48669	-586.25722	1076.15397	-368.96272	-525.03198	1242.45942	-785.62033	-475.97661	1117.47695	-801.36321	-629.27105	1208.38721	-793.32374	-578.11159	1081.73187	-816.07046	-553.40852	1482.09116	-447.98013	-724.15915	1534.24290	-536.97968	-554.07523	1456.27091	-711.38252	-723.33890	1530.76972	-628.62636	-511.24861	1986.69460	-630.39784	-447.69995	1965.90045	-469.87568	-445.35465	1958.75276	-770.99781	-405.57651	1873.62822	-587.70387	-405.30128	1872.15054	-637.68309	-603.70006	1896.65547	-282.44393	-765.83819	1883.87198	-260.82359	-709.94381	1932.85931	-214.19102	-602.67527	1750.01934	-179.34523	-559.42547	1674.31129	-177.12208	-574.03460	1674.66212	-142.93193	-492.39653	1774.99750	-973.17921	-610.75644	1714.25558	-1005.50645	-553.33731	1752.75823	-1056.61378	-384.29189	1668.32184	-978.88807	-334.39594	1640.62313	-936.48329	-327.97383	1631.08197	-968.69607	-643.17919	1397.94689	-473.67425	-648.85486	1384.75844	-670.62845	-633.23022	1403.32265	-483.18526	-631.66715	1396.70654	-657.73124	
144	1.43000000	-460.03473	930.97360	-362.00902	-436.70221	782.58507	-355.09837	-536.24017	427.81470	-325.74085	-600.84673	421.59276	-385.98176	-427.46941	317.98908	-312.31497	-384.68441	338.25734	-362.82865	-476.91948	928.78783	-814.74269	-424.43080	735.12484	-820.33397	-512.94099	436.41058	-828.05566	-558.88633	433.72440	-752.23778	-431.40182	294.40010	-872.58542	-367.42468	309.98439	-829.98835	-449.44405	671.06453	-347.68732	-500.35159	790.67947	-316.32486	-515.61711	681.66693	-300.32433	-502.50517	747.66021	-857.91944	-511.63834	628.71964	-848.43159	-531.65654	1218.47186	-362.73566	-477.64402	1120.32089	-356.55962	-523.45939	1069.69106	-345.29545	-629.41934	1165.92127	-384.96622	-574.27968	1061.14129	-367.79357	-515.26986	1225.99027	-784.79337	-467.04362	1100.76578	-801.03260	-619.67561	1192.86388	-793.48885	-569.31357	1065.88678	-816.68086	-542.93338	1467.33111	-447.50542	-713.43446	1518.77657	-536.86648	-543.06954	1441.25018	-712.39522	-712.32965	1515.12818	-628.62550	-500.50118	1971.65797	-630.34081	-438.21527	1951.03327	-469.50117	-433.74767	1943.41186	-770.83574	-395.51109	1858.22379	-586.91164	-395.60191	1856.83384	-636.20021	-599.25375	1886.68594	-284.95957	-762.52170	1877.36117	-267.59901	-706.23522	1925.25652	-219.64999	-603.48673	1740.38264	-182.98905	-561.69200	1664.04129	-179.93680	-576.99025	1664.36709	-146.01602	-485.39357	1761.44784	-973.20918	-605.17894	1702.94067	-1004.14014	-547.31499	1740.50391	-1055.91667	-379.86144	1652.92142	-978.49181	-330.28127	1624.48367	-936.15154	-324.17815	1614.81486	-968.34200	-632.05922	1382.71145	-473.78047	-637.63791	1369.50273	-670.73595	-622.64551	1387.94421	-483.05260	-620.53132	1380.96418	-658.57384	
145	1.44000000	-448.38705	914.74625	-361.63491	-423.42432	766.52121	-355.17263	-515.11031	409.59908	-323.07631	-580.86447	401.99672	-382.45765	-404.44093	302.83438	-310.47440	-362.80336	323.82406	-361.53116	-467.84396	911.39263	-815.75903	-409.94840	719.43455	-822.82260	-488.08319	417.57732	-832.23626	-533.01668	413.66276	-755.80969	-402.87733	277.41406	-876.92131	-338.87209	295.14778	-835.29239	-433.74978	654.96446	-346.78402	-486.51118	773.84734	-315.17160	-500.69030	665.40986	-298.20780	-488.68067	729.61170	-860.07308	-493.71090	610.23140	-851.27960	-519.22937	1202.43594	-363.01334	-465.27661	1104.39251	-357.28159	-511.00219	1053.84027	-344.78945	-617.35956	1149.97762	-383.50620	-562.20419	1045.18810	-366.54269	-505.37085	1208.39580	-784.01085	-457.79295	1083.09676	-800.71017	-609.92058	1176.11235	-793.65561	-560.07168	1048.91193	-817.34820	-532.37763	1451.63219	-446.81467	-702.62911	1502.15076	-536.78769	-531.85691	1425.45951	-712.60585	-701.36313	1498.42715	-628.57004	-489.96923	1955.57925	-630.47802	-428.82651	1935.16250	-468.96203	-422.46244	1927.00667	-770.57532	-385.54655	1841.97346	-585.68382	-385.88664	1840.67178	-634.87970	-594.90896	1875.88113	-287.67716	-759.27460	1869.05263	-274.78047	-702.58072	1916.08184	-225.38079	-603.91952	1729.55265	-187.07140	-563.22373	1652.65812	-183.17362	-579.19368	1653.21781	-149.33181	-478.33101	1746.76868	-973.25893	-599.35389	1690.40376	-1002.97098	-541.13100	1727.02104	-1055.21165	-375.26480	1636.65632	-977.97631	-326.11131	1607.53673	-935.53948	-320.13297	1597.66178	-967.76463	-620.84977	1366.48471	-473.63628	-626.05064	1353.25738	-670.60037	-611.64133	1371.67010	-482.57095	-609.21303	1364.52521	-658.68071	
146	1.45000000	-436.73311	897.50285	-361.16065	-410.23521	749.54166	-354.86393	-494.84421	390.26718	-320.92913	-561.44750	382.01014	-379.48602	-382.57289	286.90713	-308.27543	-341.85330	308.28006	-359.91358	-458.26817	893.04199	-816.62371	-395.56874	702.84344	-824.91843	-463.70608	398.58144	-836.38423	-507.86117	393.44918	-759.57276	-375.06566	260.32660	-881.20375	-311.23915	279.79938	-840.08497	-418.48525	637.97010	-345.71946	-473.03682	756.22013	-314.04935	-485.33656	647.49571	-296.69016	-474.61933	710.93672	-862.08210	-475.90407	591.40245	-854.34494	-506.61956	1185.32709	-363.46712	-452.85407	1087.41321	-357.79260	-498.37390	1036.98162	-344.20017	-605.15771	1133.01076	-382.26262	-550.07713	1028.26139	-365.48102	-495.24812	1189.88737	-783.39805	-448.16878	1064.56335	-800.42407	-599.88296	1158.23808	-793.98956	-550.39030	1030.86643	-817.96015	-521.72002	1435.00018	-446.17606	-691.79327	1484.46672	-536.68508	-520.56729	1408.44378	-711.48285	-690.40772	1480.64945	-628.42656	-479.68250	1938.51133	-630.62088	-419.69166	1918.60116	-468.37258	-411.54493	1909.65333	-770.17346	-375.73730	1824.95788	-584.53146	-375.49272	1823.56583	-634.25354	-590.62573	1863.62854	-290.94429	-755.65540	1858.83137	-282.12908	-699.21600	1905.12112	-231.19356	-603.77096	1717.53003	-191.41467	-564.16267	1640.09269	-186.93246	-580.63654	1641.04216	-153.04309	-471.16350	1730.80705	-972.99303	-593.47601	1676.82905	-1002.22691	-534.99756	1712.04673	-1054.66950	-370.40206	1619.42908	-977.19186	-321.79628	1589.57231	-934.70050	-315.88397	1579.47313	-966.84150	-609.71202	1349.39120	-472.95201	-614.32338	1335.77128	-669.90400	-600.35288	1354.66705	-481.85285	-597.69791	1347.35171	-657.65961	
